<?xml version="1.0" encoding="UTF-8" standalone="no"?>
<svg
   height="48"
   viewBox="0 -960 960 960"
   width="48"
   fill="undefined"
   version="1.1"
   id="svg877"
   xml:space="preserve"
   xmlns="http://www.w3.org/2000/svg"
   xmlns:svg="http://www.w3.org/2000/svg"><defs
     id="defs881" /><path
     style="fill:#d4aa00"
     d="m 348,-543 q 21.45,0 36.73,-15.28 Q 400,-573.55 400,-595 400,-616.45 384.73,-631.72 369.45,-647 348,-647 q -21.45,0 -36.73,15.28 Q 296,-616.45 296,-595 q 0,21.45 15.27,36.72 Q 326.55,-543 348,-543 Z"
     id="path1021" /><path
     style="fill:#d4aa00"
     d="m 453,-335 h 228 v -60 H 453 Z"
     id="path1019" /><path
     style="fill:#d4aa00"
     d="m 453,-565 h 228 v -60 H 453 Z m -273,445 q -24,0 -42,-18 -18,-18 -18,-42 v -600 q 0,-24 18,-42 18,-18 42,-18 h 600 q 24,0 42,18 18,18 18,42 v 600 q 0,24 -18,42 -18,18 -42,18 z m 0,-60 H 780 V -780 H 180 Z m 0,-600 v 600 z"
     id="path875" /><g
     id="g1484"
     transform="matrix(0.91415133,0,0,0.91415133,27.504733,-38.462069)"
     style="fill:#d4aa00"><path
       d="m 315.986,-300.99417 34.60723,-20.72024 34.60723,20.94068 -9.25799,-39.23622 30.4191,-26.45137 -40.11794,-3.52686 -15.6504,-37.03195 -15.6504,36.81151 -40.11793,3.52684 30.41909,26.45139 z m -19.83853,27.55351 14.32783,-61.94031 -48.05334,-41.66093 63.48331,-5.5107 24.68796,-58.41347 24.68796,58.41347 63.48331,5.5107 -48.05334,41.66093 14.32784,61.94031 -54.44577,-32.84379 z m 54.44576,-78.25198 z"
       id="path1050"
       style="fill:#d4aa00;stroke:none;stroke-width:0.220428;stroke-opacity:1" /><path
       d="m 326.84619,-317.32441 24.25552,-14.52241 24.25551,14.67691 -6.48874,-27.4999 21.32014,-18.53925 -28.11785,-2.47189 -10.96906,-25.95496 -10.96906,25.80046 -28.11786,2.4719 21.32014,18.53925 z m -13.90444,19.31171 10.04209,-43.41273 -33.67963,-29.19933 44.49419,-3.86233 17.3033,-40.94085 17.30332,40.94085 44.49419,3.86233 -33.67966,29.19933 10.0421,43.41273 -38.15995,-23.01957 z m 38.15996,-54.84526 z"
       id="path1422"
       style="fill:#d4aa00;stroke:none;stroke-width:0.154493;stroke-opacity:1" /><path
       d="m 333.30187,-326.14476 17.29137,-10.79302 17.29134,10.90785 -4.62571,-20.43786 15.19878,-13.77833 -20.04476,-1.8371 -7.81965,-19.28965 -7.81967,19.17483 -20.04476,1.8371 15.19878,13.77833 z m -9.91224,14.3524 7.15883,-32.26423 -24.00964,-21.70085 31.71918,-2.87047 12.33524,-30.42715 12.33524,30.42715 31.71916,2.87047 -24.00966,21.70085 7.15885,32.26423 -27.20359,-17.10807 z m 27.20361,-40.76085 z"
       id="path1424"
       style="fill:#d4aa00;stroke:none;stroke-width:0.112453;stroke-opacity:1" /><ellipse
       style="fill:#d4aa00;stroke:none;stroke-width:44.9008;stroke-opacity:1"
       id="path1478"
       cx="350.33899"
       cy="-352.88135"
       rx="35.084743"
       ry="35.59322" /></g></svg>
