<?xml version="1.0" encoding="UTF-8" standalone="no"?>
<svg
   id="logosandtypes_com"
   width="100"
   height="100"
   version="1.1"
   viewBox="0 0 100 100"
   sodipodi:docname="oscar_win.svg"
   inkscape:version="1.2.1 (9c6d41e410, 2022-07-14)"
   xmlns:inkscape="http://www.inkscape.org/namespaces/inkscape"
   xmlns:sodipodi="http://sodipodi.sourceforge.net/DTD/sodipodi-0.dtd"
   xmlns="http://www.w3.org/2000/svg"
   xmlns:svg="http://www.w3.org/2000/svg">
  <sodipodi:namedview
     id="namedview407"
     pagecolor="#ffffff"
     bordercolor="#000000"
     borderopacity="0.25"
     inkscape:showpageshadow="2"
     inkscape:pageopacity="0.0"
     inkscape:pagecheckerboard="0"
     inkscape:deskcolor="#d1d1d1"
     showgrid="false"
     inkscape:zoom="2.36"
     inkscape:cx="32.20339"
     inkscape:cy="50.211864"
     inkscape:window-width="1920"
     inkscape:window-height="1001"
     inkscape:window-x="-9"
     inkscape:window-y="-9"
     inkscape:window-maximized="1"
     inkscape:current-layer="logosandtypes_com" />
  <defs
     id="defs5251" />
  <path
     d="M 0,0 H 150 V 150 H 0 Z"
     fill="none"
     id="path5242" />
  <rect
     width="100"
     height="100"
     fill="none"
     opacity="0.85"
     stroke-width="1.4032"
     id="rect5244"
     x="0"
     y="0" />
  <path
     d="M 50,0 94.075,100 H 66.153 l -3.6526,-8.6039 h -4.3831 c -0.89286,-1.2987 -0.81169,-1.5422 -2.2727,-1.7045 -3.3279,-0.16234 -3.7338,-0.56818 -3.7338,-3.0844 0,-2.1916 0.97403,-6.4123 1.0552,-8.0357 0.08117,-2.0292 -0.16234,-2.8409 -0.16234,-4.2208 0,-1.461 0.97403,-3.0844 1.1364,-6.4935 0.08117,-1.9481 -0.08117,-3.9773 -0.64935,-5.8442 0.73052,-0.08117 1.5422,-0.56818 1.8669,-1.2175 0.32468,-0.81169 1.461,-5.4383 1.461,-7.3052 0,-0.64935 -0.08117,-1.2987 -0.24351,-1.9481 C 55.76341,49.6753 53.4095,50 52.3543,48.7825 52.02962,48.37666 51.78612,48.45782 51.78612,47.078 c 0.56818,-0.73052 0.73052,-1.8669 0.73052,-3.4903 -0.08117,-1.3799 -1.2175,-2.4351 -2.5162,-2.3539 -1.2987,0.08117 -2.3539,1.0552 -2.3539,2.3539 0,1.6234 0.16234,2.7597 0.73052,3.4903 0,1.3799 -0.24351,1.2987 -0.56818,1.7045 -1.0552,1.2175 -3.4091,0.89286 -4.2208,2.7597 -0.16234,0.64935 -0.24351,1.2987 -0.24351,1.9481 0,1.8669 1.1364,6.4935 1.461,7.3052 0.24351,0.56818 1.1364,1.1364 1.8669,1.2175 -0.56818,1.8669 -0.73052,3.8961 -0.64935,5.8442 0.16234,3.4091 1.1364,5.0325 1.1364,6.4935 0,1.461 -0.24351,2.1916 -0.16234,4.2208 0.08117,1.6234 1.0552,5.763 1.0552,8.0357 0,2.4351 -0.40584,2.9221 -3.7338,3.0844 -1.461,0.16234 -1.3799,0.40584 -2.2727,1.7045 h -4.4643 L 33.92898,100 h -28.003 z"
     fill="#b39930"
     stroke-width="0.81169"
     id="path5246" />
</svg>
