<?xml version="1.0" encoding="UTF-8"?>
<svg id="logosandtypes_com" width="100" height="100" version="1.1" viewBox="0 0 100 100" xmlns="http://www.w3.org/2000/svg">
 <path d="m0 0h150v150h-150z" fill="none"/>
 <rect width="100" height="100" fill="none" opacity=".85" stroke-width="1.4032"/>
 <path d="m50 0 44.075 100h-27.922l-3.6526-8.6039h-4.3831c-0.89286-1.2987-0.81169-1.5422-2.2727-1.7045-3.3279-0.16234-3.7338-0.56818-3.7338-3.0844 0-2.1916 0.97403-6.4123 1.0552-8.0357 0.08117-2.0292-0.16234-2.8409-0.16234-4.2208 0-1.461 0.97403-3.0844 1.1364-6.4935 0.08117-1.9481-0.08117-3.9773-0.64935-5.8442 0.73052-0.08117 1.5422-0.56818 1.8669-1.2175 0.32468-0.81169 1.461-5.4383 1.461-7.3052 0-0.64935-0.08117-1.2987-0.24351-1.9481-0.81169-1.8669-3.1656-1.5422-4.2208-2.7597-0.32468-0.40584-0.56818-0.32468-0.56818-1.7045 0.56818-0.73052 0.73052-1.8669 0.73052-3.4903-0.08117-1.3799-1.2175-2.4351-2.5162-2.3539-1.2987 0.08117-2.3539 1.0552-2.3539 2.3539 0 1.6234 0.16234 2.7597 0.73052 3.4903 0 1.3799-0.24351 1.2987-0.56818 1.7045-1.0552 1.2175-3.4091 0.89286-4.2208 2.7597-0.16234 0.64935-0.24351 1.2987-0.24351 1.9481 0 1.8669 1.1364 6.4935 1.461 7.3052 0.24351 0.56818 1.1364 1.1364 1.8669 1.2175-0.56818 1.8669-0.73052 3.8961-0.64935 5.8442 0.16234 3.4091 1.1364 5.0325 1.1364 6.4935s-0.24351 2.1916-0.16234 4.2208c0.08117 1.6234 1.0552 5.763 1.0552 8.0357 0 2.4351-0.40584 2.9221-3.7338 3.0844-1.461 0.16234-1.3799 0.40584-2.2727 1.7045h-4.4643l-3.6526 8.6039h-28.003z" fill="#ccc" stroke-width=".81169"/>
</svg>
