<?xml version="1.0" encoding="UTF-8" standalone="no"?>
<svg
   id="logosandtypes_com"
   width="32.222656"
   height="58.770016"
   version="1.1"
   viewBox="0 0 32.222656 58.770016"
   xmlns="http://www.w3.org/2000/svg"
   xmlns:svg="http://www.w3.org/2000/svg">
  <defs
     id="defs5251" />
  <path
     style="fill:#ffffff;stroke-width:1.90938"
     d="m 16.070312,0.00439072 c -1.298698,0.08117 -2.353515,1.05481698 -2.353515,2.35351598 0,1.623398 0.16229,2.759635 0.730469,3.490234 0,1.379899 -0.243691,1.299279 -0.56836,1.705078 -1.055199,1.217499 -3.409004,0.892928 -4.2207025,2.7597663 -0.16234,0.649349 -0.244141,1.297866 -0.244141,1.947265 0,1.866899 1.1363385,6.492989 1.4609375,7.304688 0.24351,0.568179 1.136688,1.13765 1.867188,1.21875 -0.56818,1.866898 -0.729608,3.895652 -0.648438,5.84375 0.16234,3.409096 1.136719,5.033142 1.136719,6.49414 0,1.460999 -0.243279,2.191506 -0.162109,4.220704 0.08117,1.623398 1.054687,5.762458 1.054687,8.035156 0,2.435097 -0.406419,2.921684 -3.734375,3.083984 -1.4609985,0.16234 -1.3806385,0.40642 -2.2734375,1.705078 H 3.6523435 L 5e-7,58.770016 H 32.222656 L 28.570312,50.1665 H 24.1875 c -0.89286,-1.298698 -0.812429,-1.542778 -2.273438,-1.705078 -3.327897,-0.16234 -3.732422,-0.567767 -3.732422,-3.083984 0,-2.191598 0.973518,-6.411758 1.054688,-8.035156 0.08117,-2.029198 -0.16211,-2.840805 -0.16211,-4.220704 0,-1.460998 0.974349,-3.085044 1.136719,-6.49414 0.08117,-1.948098 -0.08221,-3.976852 -0.650391,-5.84375 0.73052,-0.08117 1.542488,-0.569431 1.867188,-1.21875 0.32468,-0.811689 1.460937,-5.437789 1.460937,-7.304688 0,-0.649349 -0.0818,-1.297866 -0.24414,-1.947265 -0.811689,-1.8668983 -3.165504,-1.5422673 -4.220703,-2.7597663 -0.32468,-0.405839 -0.56836,-0.325259 -0.56836,-1.705078 0.56818,-0.730519 0.732422,-1.866836 0.732422,-3.490234 -0.08117,-1.37989898 -1.218879,-2.43471598 -2.517578,-2.35351598 z"
     id="path350" />
</svg>
